# xmcd
#
# Track frame offsets: 
#        150
#        10905
#        25197
#        34592
#        44565
#        59925
#        70055
#        82977
#        93325
#        104872
#        115275
#        126672
#
# Disc length: 1867 seconds
#
# Revision: 2
# Processed by: cddbd v1.5.2PL0 Copyright (c) Steve Scherf et al.
# Submitted via: ExactAudioCopyFreeDBPlugin 1.0
#
DISCID=ac07490c
DTITLE=Jim Reeves - The Best of Jim Reeves
DYEAR=1900
DGENRE=Country
TTITLE0=He'll Have to Go
TTITLE1=Guilty
TTITLE2=Billy Bayou
TTITLE3=Blue Boy
TTITLE4=The Blizzard
TTITLE5=Stand At Your Window
TTITLE6=Four Walls
TTITLE7=I'm Gettin' Better
TTITLE8=Adios Amigo
TTITLE9=Am I Losing You?
TTITLE10=Anna Marie
TTITLE11=Danny Boy
EXTD=
EXTT0=
EXTT1=
EXTT2=
EXTT3=
EXTT4=
EXTT5=
EXTT6=
EXTT7=
EXTT8=
EXTT9=
EXTT10=
EXTT11=
PLAYORDER=
